<svg width="24" height="15" viewBox="0 0 24 15" fill="none" xmlns="http://www.w3.org/2000/svg">
<path d="M22.8 0.375H1.2C0.537375 0.375 0 0.906777 0 1.5625V13.4375C0 14.0932 0.537375 14.625 1.2 14.625H22.8C23.4626 14.625 24 14.0932 24 13.4375V1.5625C24 0.906777 23.4626 0.375 22.8 0.375ZM1.8 12.8438V10.4688C3.12563 10.4688 4.2 11.5319 4.2 12.8438H1.8ZM1.8 4.53125V2.15625H4.2C4.2 3.46807 3.12563 4.53125 1.8 4.53125ZM12 11.0625C10.3429 11.0625 9 9.46717 9 7.5C9 5.53246 10.3433 3.9375 12 3.9375C13.6568 3.9375 15 5.53246 15 7.5C15 9.46791 13.6564 11.0625 12 11.0625ZM22.2 12.8438H19.8C19.8 11.5319 20.8744 10.4688 22.2 10.4688V12.8438ZM22.2 4.53125C20.8744 4.53125 19.8 3.46807 19.8 2.15625H22.2V4.53125Z" fill="#1AB458"/>
</svg>
